<svg viewBox="590 140 735 845" fill="none" xmlns="http://www.w3.org/2000/svg" role="img" aria-hidden="true">
<path d="M861.855 720.249V151.207C861.855 125.301 833.117 109.726 811.412 123.869L618.821 249.361C609.578 255.383 604.005 265.667 604.005 276.699L604 678.726C604 689.45 609.27 699.49 618.096 705.581L1008.54 975.04C1020.09 983.016 1035.46 982.703 1046.68 974.263L1303.98 780.755C1312.18 774.591 1317 764.933 1317 754.678V373.888C1317 347.719 1287.74 332.197 1266.07 346.87L1077.39 474.646C1068.42 480.716 1063.05 490.837 1063.05 501.663V699.437C1063.05 710.728 1057.21 721.216 1047.62 727.167L960.105 781.443C949.073 788.285 935.035 787.937 924.356 780.556L875.934 747.092C867.118 740.999 861.855 730.966 861.855 720.249Z" fill="url(#paint0_linear_symbol)"/>
<defs>
<linearGradient id="paint0_linear_symbol" x1="1045.67" y1="180.97" x2="1029.31" y2="990.697" gradientUnits="userSpaceOnUse">
<stop stop-color="#5EA2F9"/>
<stop offset="1" stop-color="#1E50D9"/>
</linearGradient>
</defs>
</svg>
