<svg viewBox="523 103 874 874" fill="none" xmlns="http://www.w3.org/2000/svg" role="img" aria-hidden="true">
  <rect x="523" y="103" width="874" height="874" rx="196.037" fill="url(#paint0_linear_square_icon)"/>
  <path d="M903.661 657.519V315.908C903.661 300.355 886.408 291.005 873.378 299.496L757.761 374.832C752.212 378.447 748.866 384.621 748.866 391.244L748.863 632.591C748.863 639.03 752.027 645.057 757.326 648.714L991.718 810.477C998.656 815.265 1007.88 815.077 1014.62 810.01L1169.08 693.843C1174 690.142 1176.9 684.344 1176.9 678.187V449.589C1176.9 433.879 1159.33 424.561 1146.32 433.369L1033.05 510.076C1027.67 513.721 1024.44 519.797 1024.44 526.296V645.025C1024.44 651.803 1020.94 658.1 1015.18 661.672L962.643 694.255C956.02 698.363 947.593 698.154 941.182 693.723L912.113 673.634C906.82 669.976 903.661 663.952 903.661 657.519Z" fill="white"/>
  <defs>
    <linearGradient id="paint0_linear_square_icon" x1="557.371" y1="166.831" x2="1323.35" y2="932.809" gradientUnits="userSpaceOnUse">
      <stop stop-color="#60A5FA"/>
      <stop offset="1" stop-color="#1D4ED8"/>
    </linearGradient>
  </defs>
</svg>
