<svg viewBox="169 346 1568 406" fill="none" xmlns="http://www.w3.org/2000/svg" role="img" aria-label="untopo">
<path d="M776.461 643H731.223V609.849L730.878 600.179V469.3H776.461V643ZM733.295 570.481L742.619 576.697C743.08 590.971 740.432 603.518 734.677 614.338C729.151 624.928 721.209 633.331 710.849 639.547C700.719 645.532 688.748 648.525 674.935 648.525C654.446 648.525 638.215 642.54 626.244 630.568C614.272 618.367 608.287 600.755 608.287 577.733V469.3H653.87V572.898C653.87 585.33 656.863 594.769 662.849 601.215C669.064 607.431 677.467 610.539 688.057 610.539C695.655 610.539 702.676 608.928 709.122 605.705C715.569 602.251 720.979 597.532 725.353 591.546C729.727 585.33 732.375 578.309 733.295 570.481ZM975.251 643H929.668V542.51C929.668 528.927 926.56 518.797 920.344 512.121C914.128 505.214 905.725 501.761 895.135 501.761C887.768 501.761 880.747 503.718 874.07 507.632C867.394 511.545 861.984 517.646 857.84 525.934C853.696 534.222 851.624 545.157 851.624 558.74V643H806.041V469.3H851.279V523.171H845.754C847.826 507.747 852.085 495.775 858.531 487.257C865.207 478.509 872.919 472.408 881.668 468.955C890.646 465.502 899.51 463.775 908.258 463.775C928.978 463.775 945.323 470.106 957.294 482.768C969.266 495.43 975.251 513.847 975.251 538.02V643ZM1110.94 643H1067.42C1051.77 643 1039.91 639.086 1031.86 631.259C1024.03 623.201 1020.11 611.345 1020.11 595.69V423.372H1065.7V587.748C1065.7 593.963 1067.08 598.568 1069.84 601.561C1072.6 604.323 1076.98 605.705 1082.96 605.705H1110.94V643ZM1108.86 505.905H989.726V469.3H1108.86V505.905ZM1217.4 648.525C1198.52 648.525 1181.83 644.612 1167.33 636.784C1152.82 628.726 1141.54 617.791 1133.48 603.978C1125.43 589.935 1121.4 574.05 1121.4 556.323C1121.4 538.135 1125.43 522.135 1133.48 508.322C1141.54 494.509 1152.82 483.689 1167.33 475.861C1181.83 467.804 1198.52 463.775 1217.4 463.775C1236.28 463.775 1252.97 467.804 1267.47 475.861C1281.98 483.689 1293.26 494.509 1301.31 508.322C1309.37 522.135 1313.4 538.02 1313.4 555.977C1313.4 573.934 1309.37 589.935 1301.31 603.978C1293.26 617.791 1281.98 628.726 1267.47 636.784C1252.97 644.612 1236.28 648.525 1217.4 648.525ZM1217.4 610.539C1227.07 610.539 1235.59 608.237 1242.95 603.633C1250.32 599.028 1256.08 592.697 1260.22 584.64C1264.36 576.352 1266.44 566.913 1266.44 556.323C1266.44 545.502 1264.36 536.064 1260.22 528.006C1256.08 519.718 1250.32 513.272 1242.95 508.667C1235.59 504.063 1227.07 501.761 1217.4 501.761C1207.73 501.761 1199.21 504.063 1191.84 508.667C1184.48 513.272 1178.72 519.718 1174.58 528.006C1170.43 536.064 1168.36 545.502 1168.36 556.323C1168.36 566.913 1170.43 576.352 1174.58 584.64C1178.72 592.697 1184.48 599.028 1191.84 603.633C1199.21 608.237 1207.73 610.539 1217.4 610.539ZM1382.38 709.994H1336.79V469.3H1382.03V523.171H1372.36C1373.97 511.891 1377.77 501.761 1383.76 492.782C1389.97 483.804 1398.03 476.782 1407.93 471.717C1417.83 466.422 1429.11 463.775 1441.77 463.775C1457.66 463.775 1472.16 467.689 1485.28 475.516C1498.41 483.343 1508.77 494.164 1516.36 507.977C1524.19 521.79 1528.11 537.905 1528.11 556.323C1528.11 574.51 1524.19 590.51 1516.36 604.323C1508.54 618.136 1498.06 628.957 1484.94 636.784C1471.82 644.612 1457.08 648.525 1440.74 648.525C1425.77 648.525 1412.88 645.302 1402.06 638.856C1391.24 632.41 1383.07 623.777 1377.54 612.956C1372.02 601.906 1369.6 589.82 1370.29 576.697L1379.96 570.481C1381.11 578.309 1383.99 585.33 1388.59 591.546C1393.2 597.532 1399.07 602.251 1406.2 605.705C1413.57 608.928 1421.51 610.539 1430.03 610.539C1440.16 610.539 1449.02 608.237 1456.62 603.633C1464.22 599.028 1470.09 592.582 1474.23 584.294C1478.61 576.006 1480.8 566.683 1480.8 556.323C1480.8 545.502 1478.72 536.064 1474.58 528.006C1470.67 519.718 1465.03 513.272 1457.66 508.667C1450.52 504.063 1442 501.761 1432.1 501.761C1422.43 501.761 1413.8 504.063 1406.2 508.667C1398.84 513.272 1392.97 519.718 1388.59 528.006C1384.45 536.064 1382.38 545.848 1382.38 557.359V709.994ZM1641.15 648.525C1622.28 648.525 1605.59 644.612 1591.08 636.784C1576.58 628.726 1565.3 617.791 1557.24 603.978C1549.18 589.935 1545.15 574.05 1545.15 556.323C1545.15 538.135 1549.18 522.135 1557.24 508.322C1565.3 494.509 1576.58 483.689 1591.08 475.861C1605.59 467.804 1622.28 463.775 1641.15 463.775C1660.03 463.775 1676.72 467.804 1691.23 475.861C1705.73 483.689 1717.01 494.509 1725.07 508.322C1733.13 522.135 1737.16 538.02 1737.16 555.977C1737.16 573.934 1733.13 589.935 1725.07 603.978C1717.01 617.791 1705.73 628.726 1691.23 636.784C1676.72 644.612 1660.03 648.525 1641.15 648.525ZM1641.15 610.539C1650.82 610.539 1659.34 608.237 1666.71 603.633C1674.08 599.028 1679.83 592.697 1683.97 584.64C1688.12 576.352 1690.19 566.913 1690.19 556.323C1690.19 545.502 1688.12 536.064 1683.97 528.006C1679.83 519.718 1674.08 513.272 1666.71 508.667C1659.34 504.063 1650.82 501.761 1641.15 501.761C1631.48 501.761 1622.97 504.063 1615.6 508.667C1608.23 513.272 1602.48 519.718 1598.33 528.006C1594.19 536.064 1592.12 545.502 1592.12 556.323C1592.12 566.913 1594.19 576.352 1598.33 584.64C1602.48 592.697 1608.23 599.028 1615.6 603.633C1622.97 608.237 1631.48 610.539 1641.15 610.539Z" fill="black"/>
<path d="M283.415 625.018V372.524C283.415 361.028 270.663 354.118 261.032 360.393L175.576 416.076C171.475 418.748 169.002 423.312 169.002 428.206L169 606.593C169 611.352 171.338 615.807 175.255 618.509L348.5 738.073C353.629 741.612 360.447 741.474 365.427 737.728L479.595 651.866C483.232 649.131 485.371 644.845 485.371 640.294V471.331C485.371 459.72 472.389 452.832 462.774 459.343L379.05 516.039C375.072 518.733 372.69 523.224 372.69 528.027V615.783C372.69 620.793 370.1 625.447 365.842 628.087L327.01 652.171C322.115 655.206 315.886 655.052 311.148 651.777L289.662 636.929C285.75 634.225 283.415 629.773 283.415 625.018Z" fill="url(#paint0_linear_logotype)"/>
<defs>
<linearGradient id="paint0_linear_logotype" x1="364.977" y1="385.73" x2="357.718" y2="745.02" gradientUnits="userSpaceOnUse">
<stop stop-color="#5EA2F9"/>
<stop offset="1" stop-color="#1E50D9"/>
</linearGradient>
</defs>
</svg>
